<svg width="100" height="100" viewBox="0 0 100 100" fill="none" xmlns="http://www.w3.org/2000/svg">
<g id="pixijs">
<g id="pixijs_2">
<path id="Vector" d="M50.2752 0C29.6881 0 13 16.6881 13 37.2752C13 37.6787 13.007 38.0787 13.0209 38.4786V74.3C13.0209 74.3 13.0209 74.3035 13.0209 74.307V77.9486C13.0209 77.9486 13.0209 77.9486 13.0243 77.9451V86.95C13.0243 87.0196 13.0209 87.0857 13.0209 87.1552C13.0209 87.2248 13.0243 87.2943 13.0278 87.3639V87.5309H13.0313C13.2296 94.4489 18.8954 99.9965 25.8622 99.9965C32.8289 99.9965 38.5539 94.4489 38.7522 87.5309V74.307H49.4022C49.6909 74.3139 49.9831 74.3174 50.2718 74.3174C70.8589 74.3174 87.547 57.8623 87.547 37.2752C87.547 16.6881 70.8624 0 50.2752 0ZM50.2752 48.5792C47.9971 48.5792 42.2233 48.5792 39.8269 48.5792H38.7626V37.2787C38.7626 30.945 43.9415 25.8078 50.2752 25.8078C56.6089 25.8078 61.7461 30.945 61.7461 37.2787C61.7461 43.6124 56.6089 48.5826 50.2752 48.5826V48.5792Z" fill="#E72264"/>
<path id="Vector_2" opacity="0.15" d="M25.5387 74.314H38.7348V87.5344H38.6756C38.4774 94.4524 32.8115 100 25.8448 100C18.8781 100 13.2087 94.4524 13.0104 87.5344H13.007V87.3674C13.007 87.2979 13 87.2283 13 87.1587C13 87.0892 13.0035 87.0231 13.0035 86.9535V86.0214C13.4 79.8338 19.2398 74.314 25.5352 74.314H25.5387Z" fill="#1D1D1B"/>
<g id="Group" opacity="0.05">
<path id="Vector_3" opacity="0.5" d="M13.0208 58.412V74.3071C13.0208 60.3041 24.7873 48.7776 38.7555 48.5863V43.5151C28.3733 44.6073 19.1805 50.1966 13.0208 58.412Z" fill="black"/>
<path id="Vector_4" d="M13.0415 86.2685C16.0744 84.0424 19.7543 82.7312 23.7264 82.7312H38.7589V74.3071H25.8793C19.0761 74.3071 13.5145 79.5835 13.0415 86.2685Z" fill="black"/>
</g>
<g id="Group_2" opacity="0.05">
<path id="Vector_5" opacity="0.5" d="M38.7555 48.586V43.981C28.2863 45.007 19.0484 50.7181 13.0208 59.1039V74.3069C13.0208 60.3039 24.7873 48.7773 38.7555 48.586Z" fill="black"/>
<path id="Vector_6" d="M25.8795 74.3066C19.2606 74.3066 13.8138 79.3047 13.0903 85.7323C16.1198 83.3672 19.8623 81.969 23.9213 81.969H38.7555V74.3101H25.876L25.8795 74.3066Z" fill="black"/>
</g>
<g id="Group_3" opacity="0.05">
<path id="Vector_7" opacity="0.5" d="M38.7555 48.5863V44.4438C28.1924 45.4003 18.8953 51.2506 13.0208 59.8242V74.3037C13.0208 60.3007 24.7873 48.7741 38.7555 48.5828V48.5863Z" fill="black"/>
<path id="Vector_8" d="M25.8795 74.3071C19.4449 74.3071 14.1199 79.027 13.1599 85.1937C16.172 82.6929 19.9771 81.2008 24.116 81.2008H38.7555V74.3071H25.876H25.8795Z" fill="black"/>
</g>
<g id="Group_4" opacity="0.05">
<path id="Vector_9" opacity="0.5" d="M38.7555 48.5861V44.9097C28.0846 45.7931 18.7249 51.8033 13.0208 60.5856V74.3069C13.0208 60.3039 24.7873 48.7774 38.7555 48.5861Z" fill="black"/>
<path id="Vector_10" d="M25.8793 74.3071C19.6291 74.3071 14.4223 78.7626 13.2537 84.6685C16.2414 82.0286 20.0986 80.4356 24.3142 80.4356H38.7589V74.3071H25.8793Z" fill="black"/>
</g>
<g id="Group_5" opacity="0.05">
<path id="Vector_11" opacity="0.5" d="M38.7555 48.5862V45.3794C27.9594 46.1794 18.5266 52.3774 13.0208 61.3893V74.3071C13.0208 60.3041 24.7873 48.7775 38.7555 48.5862Z" fill="black"/>
<path id="Vector_12" d="M25.8795 74.3072C19.8171 74.3072 14.739 78.4984 13.3721 84.1364C16.3181 81.3609 20.224 79.667 24.5091 79.667H38.7555V74.3037H25.876L25.8795 74.3072Z" fill="black"/>
</g>
<g id="Group_6" opacity="0.05">
<path id="Vector_13" opacity="0.5" d="M38.7555 48.5859V45.8486C27.8168 46.5651 18.2936 52.9753 13.0208 62.2515V74.3068C13.0208 60.3038 24.7873 48.7772 38.7555 48.5859Z" fill="black"/>
<path id="Vector_14" d="M25.8794 74.3066C20.0083 74.3066 15.0624 78.2369 13.5146 83.6037C16.4085 80.6925 20.3527 78.9013 24.7073 78.9013H38.759V74.3066H25.8794Z" fill="black"/>
</g>
<g id="Group_7" opacity="0.05">
<path id="Vector_15" opacity="0.5" d="M38.7555 48.586V46.3218C27.6498 46.9444 18.0188 53.612 13.0208 63.1873V74.3069C13.0208 60.3039 24.7873 48.7773 38.7555 48.586Z" fill="black"/>
<path id="Vector_16" d="M25.8795 74.3071C20.2067 74.3071 15.3929 77.98 13.6782 83.0755C16.5059 80.0322 20.4884 78.1366 24.8987 78.1366H38.7556V74.3071H25.8761H25.8795Z" fill="black"/>
</g>
<g id="Group_8" opacity="0.05">
<path id="Vector_17" opacity="0.5" d="M38.7555 48.5861V46.7983C27.4446 47.3201 17.6849 54.3007 13.0208 64.2273V74.307C13.0208 60.304 24.7873 48.7774 38.7555 48.5861Z" fill="black"/>
<path id="Vector_18" d="M25.8795 74.3071C20.4014 74.3071 15.7268 77.7331 13.866 82.5573C16.6172 79.3783 20.624 77.3714 25.0969 77.3714H38.759V74.3071H25.8795Z" fill="black"/>
</g>
<g id="Group_9" opacity="0.05">
<path id="Vector_19" opacity="0.5" d="M38.7555 48.586V47.2852C27.1837 47.6991 17.2571 55.0727 13.0208 65.4341V74.3068C13.0208 60.3038 24.7873 48.7773 38.7555 48.586Z" fill="black"/>
<path id="Vector_20" d="M25.8794 74.3066C20.5996 74.3066 16.0641 77.4891 14.0815 82.0386C16.7354 78.7239 20.77 76.6057 25.2951 76.6057H38.759V74.3066H25.8794Z" fill="black"/>
</g>
</g>
</g>
</svg>
