<svg width="100" height="100" viewBox="0 0 100 100" fill="none" xmlns="http://www.w3.org/2000/svg">
<g id="storybook">
<g id="storybook_2">
<path id="Vector" d="M13.1032 92.15L10.0032 9.60018C9.95642 8.28907 10.4237 7.01156 11.3055 6.04013C12.1873 5.06869 13.4137 4.48021 14.7232 4.40019L84.923 0.0101999C85.6089 -0.0335677 86.2965 0.0638312 86.9432 0.296374C87.59 0.528917 88.1822 0.89166 88.6831 1.36217C89.1841 1.83269 89.5832 2.40097 89.8558 3.03187C90.1284 3.66278 90.2687 4.34291 90.268 5.03019V94.975C90.2673 95.6541 90.1292 96.326 89.8618 96.9502C89.5945 97.5744 89.2035 98.1381 88.7125 98.6071C88.2215 99.0762 87.6405 99.441 87.0047 99.6795C86.3689 99.918 85.6914 100.025 85.013 99.995L17.9032 96.98C16.6424 96.9232 15.4491 96.3945 14.56 95.4989C13.6708 94.6033 13.1508 93.4111 13.1032 92.15Z" fill="#FF4785"/>
<path id="Vector_2" fill-rule="evenodd" clip-rule="evenodd" d="M79.4035 0.355469L69.7436 0.955467L69.2736 12.2904C69.2678 12.4323 69.3024 12.5728 69.3733 12.6957C69.4443 12.8187 69.5486 12.919 69.6743 12.985C69.8 13.0509 69.9418 13.0799 70.0833 13.0685C70.2248 13.0571 70.3601 13.0057 70.4736 12.9204L74.8735 9.58045L78.5935 12.5104C78.7058 12.5993 78.8413 12.6542 78.9838 12.6686C79.1263 12.683 79.2699 12.6562 79.3977 12.5915C79.5255 12.5268 79.6321 12.4269 79.7049 12.3036C79.7777 12.1802 79.8137 12.0386 79.8085 11.8954L79.4035 0.355469ZM71.8836 38.3054C70.1186 39.6804 56.9386 40.6154 56.9386 38.6604C57.2186 31.1954 53.8786 30.8704 52.0186 30.8704C50.2586 30.8704 47.2886 31.4004 47.2886 35.4004C47.2886 39.4754 51.6286 41.7754 56.7236 44.4754C63.9586 48.3104 72.7235 52.9553 72.7235 64.6353C72.7235 75.8353 63.6236 82.0153 52.0236 82.0153C40.0486 82.0153 29.5837 77.1703 30.7636 60.3753C31.2286 58.4053 46.4536 58.8753 46.4536 60.3753C46.2636 67.3053 47.8436 69.3453 51.8336 69.3453C54.8986 69.3453 56.2886 67.6553 56.2886 64.8153C56.2886 60.5103 51.7686 57.9703 46.5636 55.0503C39.5186 51.0953 31.2286 46.4404 31.2286 35.7554C31.2286 25.0954 38.5586 17.9854 51.6486 17.9854C64.7386 17.9854 71.8836 24.9854 71.8836 38.3054Z" fill="white"/>
</g>
</g>
</svg>
