<svg width="100" height="100" viewBox="0 0 100 100" fill="none" xmlns="http://www.w3.org/2000/svg">
<g id="docker">
<g id="docker_2">
<path id="Vector" d="M99.014 41.0885C98.7428 40.8731 96.211 38.9614 90.8716 38.9614C89.4617 38.9675 88.0548 39.0884 86.6646 39.323C85.6312 32.2398 79.7751 28.7864 79.5125 28.6315L78.0788 27.8047L77.1358 29.1654C75.9549 30.9933 75.0928 33.0083 74.5867 35.1248C73.6307 39.1681 74.2121 42.9657 76.266 46.2124C73.7858 47.5946 69.8072 47.9348 69.002 47.9649H3.13051C1.40996 47.9673 0.0138216 49.3577 0.00444499 51.0781C-0.0723876 56.8488 0.905303 62.5851 2.88937 68.0045C5.15852 73.9553 8.5344 78.3387 12.9264 81.0212C17.8481 84.0353 25.8441 85.7577 34.908 85.7577C39.0026 85.7706 43.0896 85.4 47.1152 84.6511C52.7113 83.6236 58.0961 81.6677 63.047 78.8639C67.1264 76.5015 70.7979 73.4963 73.9194 69.9636C79.1382 64.0559 82.2472 57.4765 84.5593 51.6292H85.4807C91.1946 51.6292 94.7083 49.3427 96.6459 47.4267C97.9336 46.2046 98.9389 44.716 99.5912 43.0648L100 41.8678L99.014 41.0885Z" fill="#2496ED"/>
<path id="Vector_2" d="M9.23622 46.0359H18.0633C18.489 46.0359 18.834 45.6907 18.834 45.2652V37.4025C18.8364 36.9768 18.4932 36.6298 18.0676 36.6274C18.0662 36.6274 18.0647 36.6274 18.0633 36.6274H9.23622C8.81049 36.6274 8.46552 36.9726 8.46552 37.3981V37.4025V45.265C8.46552 45.6907 8.81049 46.0359 9.23622 46.0359Z" fill="#2496ED"/>
<path id="Vector_3" d="M21.4004 46.0359H30.2275C30.6532 46.0359 30.9982 45.6907 30.9982 45.2652V37.4025C31.0006 36.9768 30.6574 36.6298 30.2317 36.6274C30.2303 36.6274 30.2288 36.6274 30.2274 36.6274H21.4003C20.9722 36.6274 20.6252 36.9744 20.6252 37.4025V45.265C20.6278 45.6914 20.974 46.0359 21.4004 46.0359Z" fill="#2496ED"/>
<path id="Vector_4" d="M33.7496 46.0359H42.5767C43.0024 46.0359 43.3474 45.6907 43.3474 45.2652V37.4025C43.3498 36.9768 43.0066 36.6298 42.5809 36.6274C42.5795 36.6274 42.5779 36.6274 42.5765 36.6274H33.7495C33.3237 36.6274 32.9788 36.9726 32.9788 37.3981V37.4025V45.265C32.9789 45.6907 33.324 46.0359 33.7496 46.0359Z" fill="#2496ED"/>
<path id="Vector_5" d="M45.9525 46.0359H54.7796C55.206 46.0359 55.5523 45.6916 55.5546 45.2652V37.4025C55.5546 36.9744 55.2077 36.6274 54.7796 36.6274H45.9525C45.5268 36.6274 45.1818 36.9726 45.1818 37.3981V37.4025V45.265C45.1818 45.6907 45.5269 46.0359 45.9525 46.0359Z" fill="#2496ED"/>
<path id="Vector_6" d="M21.4004 34.7242H30.2275C30.6538 34.7218 30.9982 34.3754 30.9982 33.9492V26.0866C30.9982 25.6609 30.6531 25.3159 30.2275 25.3159H21.4004C20.9741 25.3159 20.6277 25.6602 20.6254 26.0866V33.9492C20.6277 34.3763 20.9733 34.7218 21.4004 34.7242Z" fill="#2496ED"/>
<path id="Vector_7" d="M33.7496 34.7242H42.5767C43.0029 34.7218 43.3474 34.3754 43.3474 33.9492V26.0866C43.3474 25.6609 43.0022 25.3159 42.5767 25.3159H33.7496C33.3239 25.3159 32.9789 25.661 32.9789 26.0866V33.9492C32.9789 34.3754 33.3233 34.7218 33.7496 34.7242Z" fill="#2496ED"/>
<path id="Vector_8" d="M45.9525 34.7242H54.7796C55.2067 34.7218 55.5523 34.3763 55.5546 33.9492V26.0866C55.5523 25.6602 55.206 25.3159 54.7796 25.3159H45.9525C45.5268 25.3159 45.1818 25.661 45.1818 26.0866V33.9492C45.1818 34.3754 45.5262 34.7218 45.9525 34.7242Z" fill="#2496ED"/>
<path id="Vector_9" d="M45.9525 23.4084H54.7796C55.206 23.4084 55.5523 23.064 55.5546 22.6377V14.7707C55.5523 14.3443 55.206 14 54.7796 14H45.9525C45.5268 14 45.1818 14.345 45.1818 14.7707V22.6376C45.1818 23.0633 45.5269 23.4084 45.9525 23.4084Z" fill="#2496ED"/>
<path id="Vector_10" d="M58.2631 46.0359H67.0901C67.5166 46.0359 67.8628 45.6916 67.8652 45.2652V37.4025C67.8652 36.9744 67.5182 36.6274 67.0901 36.6274H58.2631C57.8375 36.6274 57.4924 36.9726 57.4924 37.3981V37.4025V45.265C57.4924 45.6907 57.8375 46.0359 58.2631 46.0359Z" fill="#2496ED"/>
</g>
</g>
</svg>
